<?xml version="1.0" encoding="UTF-8" standalone="no"?><!DOCTYPE svg PUBLIC "-//W3C//DTD SVG 1.1//EN" "http://www.w3.org/Graphics/SVG/1.1/DTD/svg11.dtd"><svg width="100%" height="100%" viewBox="0 0 267 267" version="1.1" xmlns="http://www.w3.org/2000/svg" xmlns:xlink="http://www.w3.org/1999/xlink" xml:space="preserve" xmlns:serif="http://www.serif.com/" style="fill-rule:evenodd;clip-rule:evenodd;stroke-linejoin:round;stroke-miterlimit:2;"><path d="M52.115,119.272c-0,0.752 0.404,1.445 1.058,1.814c0.654,0.37 1.457,0.358 2.1,-0.029c4.232,-2.551 9.191,-4.018 14.489,-4.018c15.532,0 28.141,12.61 28.141,28.141c0,4.886 -1.247,9.482 -3.442,13.488c-0.324,0.592 -0.341,1.304 -0.047,1.911c0.294,0.606 0.864,1.033 1.53,1.145l2.314,0.406c13.806,2.473 23.379,14.907 22.522,28.647c-0.036,0.573 0.167,1.137 0.561,1.556c0.394,0.419 0.943,0.657 1.518,0.657l112.715,-0c0.566,-0 1.123,0.038 1.669,0.112c1.11,0.15 2.141,-0.605 2.332,-1.709c0.222,-1.279 0.338,-2.597 0.338,-3.941l0,-138.478c0,-1.345 -0.116,-2.662 -0.338,-3.942c-0.191,-1.104 -1.222,-1.858 -2.332,-1.708c-0.546,0.074 -1.103,0.112 -1.669,0.112l-179.12,-0c-0.566,-0 -1.123,-0.038 -1.669,-0.112c-1.11,-0.15 -2.141,0.604 -2.332,1.708c-0.222,1.28 -0.338,2.597 -0.338,3.942l-0,70.298Z" style="fill:#dfeafb;"/><path d="M122.859,188.823c-1.1,-0 -2.011,0.856 -2.079,1.954l-0.264,2.462c-1.292,8.469 -2.724,17.853 -4.02,26.2c-0.093,0.602 0.081,1.214 0.477,1.676c0.396,0.462 0.974,0.727 1.582,0.727l117.019,0c9.112,0 16.509,-7.397 16.509,-16.509c0,-9.112 -7.397,-16.51 -16.509,-16.51c-0,-0 -112.715,-0 -112.715,-0Zm-66.405,-141.22l179.12,-0c9.112,-0 16.509,-7.398 16.509,-16.51c0,-9.112 -7.397,-16.51 -16.509,-16.51c-0,0 -179.12,0 -179.12,0c-9.112,0 -16.509,7.398 -16.509,16.51c-0,9.112 7.397,16.51 16.509,16.51Z" style="fill:#3b4157;"/><path d="M124.221,168.176c-0,1.151 0.933,2.083 2.083,2.083l14.071,0c1.151,0 2.084,-0.932 2.084,-2.083l-0,-16.899c-0,-5.033 -4.086,-9.119 -9.119,-9.119c-5.033,0 -9.119,4.086 -9.119,9.119l-0,16.899Z" style="fill:#ffb43f;"/><path d="M180.426,168.176c-0,1.151 0.932,2.083 2.083,2.083l14.071,0c1.151,0 2.083,-0.932 2.083,-2.083l0,-31.05c0,-5.033 -4.086,-9.119 -9.119,-9.119c-5.032,0 -9.118,4.086 -9.118,9.119l-0,31.05Z" style="fill:#2898d4;"/><path d="M152.323,168.176c0,1.151 0.933,2.083 2.084,2.083l14.071,0c1.15,0 2.083,-0.932 2.083,-2.083l-0,-38.392c-0,-5.033 -4.086,-9.119 -9.119,-9.119c-5.033,0 -9.119,4.086 -9.119,9.119c0,0 0,38.392 0,38.392Z" style="fill:#59d96b;"/><path d="M97.683,138.101c-0.313,0.461 -0.427,1.028 -0.319,1.574c0.354,1.779 0.539,3.621 0.539,5.505c0,3.348 -0.585,6.561 -1.661,9.541c-0.082,0.227 -0.123,0.466 -0.123,0.707l-0,4.574c-0,1.009 0.722,1.873 1.714,2.051l0.425,0.077c4.835,0.866 9.151,2.953 12.682,5.892c0.621,0.517 1.485,0.628 2.217,0.285c0.732,-0.343 1.199,-1.078 1.199,-1.886l0,-23.214c0,-5.033 -4.086,-9.119 -9.119,-9.119c-3.141,0 -5.915,1.592 -7.554,4.013Z" style="fill:#ff005d;"/><path d="M208.333,76.148c0,-4.973 -1.975,-9.742 -5.491,-13.258c-3.517,-3.517 -8.286,-5.492 -13.259,-5.492c-22.981,-0 -64.157,-0 -87.138,-0c-4.973,-0 -9.742,1.975 -13.259,5.492c-3.516,3.516 -5.491,8.285 -5.491,13.258c-0,4.656 -0,9.715 -0,14.371c-0,4.972 1.975,9.742 5.491,13.258c3.517,3.516 8.286,5.492 13.259,5.492c22.981,-0 64.157,-0 87.138,-0c4.973,-0 9.742,-1.976 13.259,-5.492c3.516,-3.516 5.491,-8.286 5.491,-13.258l0,-14.371Z" style="fill:#2898d4;"/><path d="M114.201,166.093c-0.843,-0 -1.604,0.509 -1.926,1.289c-0.321,0.78 -0.141,1.677 0.457,2.271c3.59,3.569 6.161,8.096 7.353,13.079c0.225,0.937 1.063,1.598 2.027,1.598l77.471,0c5.033,0 9.119,-4.086 9.119,-9.118c-0,-5.033 -4.086,-9.119 -9.119,-9.119l-85.382,-0Z" style="fill:#3b4157;"/><path d="M96.634,157.615c-0.875,-0.147 -1.747,0.276 -2.173,1.053c-4.78,8.728 -14.053,14.653 -24.699,14.653c-10.624,0 -19.881,-5.901 -24.671,-14.601c-0.428,-0.777 -1.301,-1.198 -2.175,-1.048c-0.795,0.135 -1.591,0.277 -2.387,0.426c-16.811,3.019 -28.157,18.882 -25.582,35.768c1.94,13.096 4.271,28.376 5.837,38.641c1.244,8.168 7.435,14.701 15.524,16.383c0.009,0.002 0.019,0.004 0.028,0.005c22.28,4.312 44.541,4.232 66.802,-0.126c0.006,-0.001 0.012,-0.002 0.018,-0.004c8.078,-1.657 14.268,-8.17 15.511,-16.322c1.645,-10.24 3.973,-25.497 5.968,-38.576c2.582,-16.922 -8.792,-32.82 -25.643,-35.838c-0.781,-0.143 -1.571,-0.282 -2.358,-0.414Z" style="fill:#2b8ffc;"/><circle cx="69.762" cy="145.18" r="32.308" style="fill:#ffbeaa;"/><path d="M124.221,168.176c-0,1.151 0.933,2.083 2.083,2.083l14.071,0c1.151,0 2.084,-0.932 2.084,-2.083l-0,-16.899c-0,-5.033 -4.086,-9.119 -9.119,-9.119c-5.033,0 -9.119,4.086 -9.119,9.119l-0,16.899Zm4.167,-2.083l-0,-14.816c-0,-2.733 2.219,-4.952 4.952,-4.952c2.733,0 4.952,2.219 4.952,4.952l-0,14.816l-9.904,-0Z" style="fill:#202333;"/><path d="M152.323,168.176c0,1.151 0.933,2.083 2.084,2.083l14.071,0c1.15,0 2.083,-0.932 2.083,-2.083l-0,-38.392c-0,-5.033 -4.086,-9.119 -9.119,-9.119c-5.033,0 -9.119,4.086 -9.119,9.119c0,0 0,38.392 0,38.392Zm4.167,-2.083l-0,-36.309c-0,-2.733 2.219,-4.952 4.952,-4.952c2.733,-0 4.952,2.219 4.952,4.952c0,0 0,36.309 0,36.309l-9.904,-0Z" style="fill:#202333;"/><path d="M180.426,168.176c-0,1.151 0.932,2.083 2.083,2.083l14.071,0c1.151,0 2.083,-0.932 2.083,-2.083l0,-31.05c0,-5.033 -4.086,-9.119 -9.119,-9.119c-5.032,0 -9.118,4.086 -9.118,9.119l-0,31.05Zm4.166,-2.083l0,-28.967c0,-2.733 2.219,-4.952 4.952,-4.952c2.734,-0 4.953,2.219 4.953,4.952l-0,28.967l-9.905,-0Z" style="fill:#202333;"/><path d="M56.454,47.603l179.12,-0c9.112,-0 16.509,-7.398 16.509,-16.51c0,-9.112 -7.397,-16.51 -16.509,-16.51c-0,0 -179.12,0 -179.12,0c-9.112,0 -16.509,7.398 -16.509,16.51c-0,9.112 7.397,16.51 16.509,16.51Zm0,-4.167c-6.812,-0 -12.343,-5.531 -12.343,-12.343c0,-6.812 5.531,-12.343 12.343,-12.343l179.12,-0c6.812,-0 12.343,5.531 12.343,12.343c-0,6.812 -5.531,12.343 -12.343,12.343l-179.12,-0Z" style="fill:#202333;"/><path d="M52.115,119.272c-0,0.752 0.404,1.445 1.058,1.814c0.654,0.37 1.457,0.358 2.1,-0.029c4.232,-2.551 9.191,-4.018 14.489,-4.018c15.532,0 28.141,12.61 28.141,28.141c0,4.886 -1.247,9.482 -3.442,13.488c-0.324,0.592 -0.341,1.304 -0.047,1.911c0.294,0.606 0.864,1.033 1.53,1.145l2.314,0.406c13.806,2.473 23.379,14.907 22.522,28.647c-0.036,0.573 0.167,1.137 0.561,1.556c0.394,0.419 0.943,0.657 1.518,0.657l112.715,-0c0.566,-0 1.123,0.038 1.669,0.112c1.11,0.15 2.141,-0.605 2.332,-1.709c0.222,-1.279 0.338,-2.597 0.338,-3.941l0,-138.478c0,-1.345 -0.116,-2.662 -0.338,-3.942c-0.191,-1.104 -1.222,-1.858 -2.332,-1.708c-0.546,0.074 -1.103,0.112 -1.669,0.112l-179.12,-0c-0.566,-0 -1.123,-0.038 -1.669,-0.112c-1.11,-0.15 -2.141,0.604 -2.332,1.708c-0.222,1.28 -0.338,2.597 -0.338,3.942l-0,70.298Zm47.263,38.828c1.731,-3.958 2.692,-8.328 2.692,-12.92c-0,-17.831 -14.477,-32.307 -32.308,-32.307c-4.811,-0 -9.377,1.054 -13.48,2.942l-0.001,0.001l0,-66.842c0,-0.461 0.017,-0.919 0.05,-1.372c0.041,0.001 0.082,0.001 0.123,0.001c0,-0 179.12,-0 179.12,-0c0.041,-0 0.082,-0 0.123,-0.001c0.033,0.453 0.05,0.911 0.05,1.372c-0,0 -0,138.477 -0,138.477c-0,0.462 -0.017,0.919 -0.05,1.372c-0.041,0 -0.082,-0 -0.123,-0c-0,-0 -110.575,-0 -110.575,-0c-0.115,-14.807 -10.663,-27.855 -25.621,-30.723Z" style="fill:#202333;"/><path d="M122.859,188.823c-1.1,-0 -2.011,0.856 -2.079,1.954l-0.264,2.462c-1.292,8.469 -2.724,17.853 -4.02,26.2c-0.093,0.602 0.081,1.214 0.477,1.676c0.396,0.462 0.974,0.727 1.582,0.727l117.019,0c9.112,0 16.509,-7.397 16.509,-16.509c0,-9.112 -7.397,-16.51 -16.509,-16.51c-0,-0 -112.715,-0 -112.715,-0Zm1.897,4.167l110.818,-0c6.812,-0 12.343,5.53 12.343,12.343c-0,6.812 -5.531,12.343 -12.343,12.343c-0,-0 -114.588,-0 -114.588,-0c1.195,-7.721 2.479,-16.139 3.649,-23.809l0.121,-0.877Z" style="fill:#202333;"/><path d="M114.201,166.093c-0.843,-0 -1.604,0.509 -1.926,1.289c-0.321,0.78 -0.141,1.677 0.457,2.271c3.59,3.569 6.161,8.096 7.353,13.079c0.225,0.937 1.063,1.598 2.027,1.598l77.471,0c5.033,0 9.119,-4.086 9.119,-9.118c-0,-5.033 -4.086,-9.119 -9.119,-9.119l-85.382,-0Zm4.554,4.166l80.828,0c2.733,0 4.952,2.219 4.952,4.953c0,2.733 -2.219,4.952 -4.952,4.952l-75.873,-0c-1.06,-3.585 -2.747,-6.936 -4.954,-9.904l-0.001,-0.001Z" style="fill:#202333;"/><path d="M97.683,138.101c-0.313,0.461 -0.427,1.028 -0.319,1.574c0.354,1.779 0.539,3.621 0.539,5.505c0,3.348 -0.585,6.561 -1.661,9.541c-0.082,0.227 -0.123,0.466 -0.123,0.707l-0,4.574c-0,1.009 0.722,1.873 1.714,2.051l0.425,0.077c4.835,0.866 9.151,2.953 12.682,5.892c0.621,0.517 1.485,0.628 2.217,0.285c0.732,-0.343 1.199,-1.078 1.199,-1.886l0,-23.214c0,-5.033 -4.086,-9.119 -9.119,-9.119c-3.141,0 -5.915,1.592 -7.554,4.013Zm2.602,20.187l0,-2.502c1.156,-3.321 1.785,-6.89 1.785,-10.606c-0,-1.827 -0.152,-3.619 -0.444,-5.362l0.001,0.001c0.904,-0.962 2.187,-1.564 3.61,-1.564c2.734,-0 4.953,2.219 4.953,4.952c-0,0 -0,19.137 -0,19.137c-2.976,-1.865 -6.306,-3.258 -9.905,-4.056Z" style="fill:#202333;"/><path d="M208.333,76.148c0,-4.973 -1.975,-9.742 -5.491,-13.258c-3.517,-3.517 -8.286,-5.492 -13.259,-5.492c-22.981,-0 -64.157,-0 -87.138,-0c-4.973,-0 -9.742,1.975 -13.259,5.492c-3.516,3.516 -5.491,8.285 -5.491,13.258c-0,4.656 -0,9.715 -0,14.371c-0,4.972 1.975,9.742 5.491,13.258c3.517,3.516 8.286,5.492 13.259,5.492c22.981,-0 64.157,-0 87.138,-0c4.973,-0 9.742,-1.976 13.259,-5.492c3.516,-3.516 5.491,-8.286 5.491,-13.258l0,-14.371Zm-4.166,0l-0,14.371c-0,3.867 -1.537,7.577 -4.272,10.312c-2.735,2.735 -6.444,4.271 -10.312,4.271c-22.981,0 -64.157,0 -87.138,0c-3.868,0 -7.577,-1.536 -10.312,-4.271c-2.735,-2.735 -4.272,-6.445 -4.272,-10.312c0,-4.656 0,-9.715 0,-14.371c0,-3.868 1.537,-7.577 4.272,-10.312c2.735,-2.735 6.444,-4.271 10.312,-4.271c22.981,-0 64.157,-0 87.138,-0c3.868,-0 7.577,1.536 10.312,4.271c2.735,2.735 4.272,6.444 4.272,10.312Z" style="fill:#202333;"/><path d="M114.187,93.51c0,-0 11.028,-5.813 16.608,-8.754c1.269,-0.669 2.802,-0.59 3.995,0.206l12.207,8.137c2.881,1.921 6.664,1.793 9.408,-0.318c7.276,-5.597 23.677,-18.213 23.677,-18.213c0.912,-0.701 1.082,-2.01 0.381,-2.922c-0.701,-0.911 -2.01,-1.082 -2.921,-0.381c-0,0 -16.401,12.616 -23.677,18.213c-1.329,1.023 -3.161,1.085 -4.557,0.155c0,-0.001 -12.206,-8.138 -12.206,-8.138c-2.464,-1.643 -5.63,-1.806 -8.25,-0.425c-5.58,2.941 -16.607,8.754 -16.607,8.754c-1.018,0.536 -1.408,1.797 -0.872,2.814c0.536,1.017 1.797,1.408 2.814,0.872Z" style="fill:#202333;"/><path d="M96.634,157.615c-0.875,-0.147 -1.747,0.276 -2.173,1.053c-4.78,8.728 -14.053,14.653 -24.699,14.653c-10.624,0 -19.881,-5.901 -24.671,-14.601c-0.428,-0.777 -1.301,-1.198 -2.175,-1.048c-0.795,0.135 -1.591,0.277 -2.387,0.426c-16.811,3.019 -28.157,18.882 -25.582,35.768c1.94,13.096 4.271,28.376 5.837,38.641c1.244,8.168 7.435,14.701 15.524,16.383c0.009,0.002 0.019,0.004 0.028,0.005c22.28,4.312 44.541,4.232 66.802,-0.126c0.006,-0.001 0.012,-0.002 0.018,-0.004c8.078,-1.657 14.268,-8.17 15.511,-16.322c1.645,-10.24 3.973,-25.497 5.968,-38.576c2.582,-16.922 -8.792,-32.82 -25.643,-35.838c-0.781,-0.143 -1.571,-0.282 -2.358,-0.414Zm0.732,4.354l0.892,0.161c14.626,2.62 24.5,16.42 22.258,31.109c-0,-0 -0,-0 -0,-0c-1.993,13.067 -4.319,28.311 -5.965,38.56c-0.001,0.005 -0.002,0.01 -0.003,0.016c-0.98,6.424 -5.857,11.558 -12.222,12.867c-21.721,4.251 -43.442,4.331 -65.182,0.126c-6.379,-1.332 -11.26,-6.486 -12.241,-12.929c-0,0 -0,0 -0,0c-1.566,-10.261 -3.895,-25.533 -5.835,-38.632c-0.001,-0.003 -0.001,-0.006 -0.001,-0.009c-2.236,-14.657 7.615,-28.426 22.209,-31.041l0.92,-0.169c5.681,9.271 15.907,15.46 27.566,15.46c11.685,-0 21.93,-6.217 27.603,-15.52l0.001,0.001Z" style="fill:#202333;"/><path d="M69.762,112.873c-17.831,-0 -32.308,14.476 -32.308,32.307c0,17.831 14.477,32.308 32.308,32.308c17.831,-0 32.308,-14.477 32.308,-32.308c-0,-17.831 -14.477,-32.307 -32.308,-32.307Zm0,4.166c15.532,0 28.141,12.61 28.141,28.141c0,15.532 -12.609,28.141 -28.141,28.141c-15.531,0 -28.141,-12.609 -28.141,-28.141c0,-15.531 12.61,-28.141 28.141,-28.141Z" style="fill:#202333;"/></svg>