<?xml version="1.0" encoding="UTF-8" standalone="no"?><!DOCTYPE svg PUBLIC "-//W3C//DTD SVG 1.1//EN" "http://www.w3.org/Graphics/SVG/1.1/DTD/svg11.dtd"><svg width="100%" height="100%" viewBox="0 0 267 267" version="1.1" xmlns="http://www.w3.org/2000/svg" xmlns:xlink="http://www.w3.org/1999/xlink" xml:space="preserve" xmlns:serif="http://www.serif.com/" style="fill-rule:evenodd;clip-rule:evenodd;stroke-linejoin:round;stroke-miterlimit:2;"><path d="M93.169,91.531c-0.704,0.392 -1.12,1.154 -1.067,1.957c0.021,0.327 0.032,0.657 0.032,0.99c0,0 0,17.278 0,25.344c0,2.911 0.469,5.802 1.387,8.565l3.545,10.658c0.49,1.472 0.12,3.095 -0.961,4.209c-1.08,1.114 -2.69,1.535 -4.177,1.091l-13.833,-4.132c-2.52,-0.752 -5.136,-1.135 -7.766,-1.135c0,0 -11.559,0 -11.559,0c-0.984,0 -1.834,0.689 -2.038,1.651c-1.056,4.971 -1.611,10.121 -1.611,15.399c-0,40.761 33.093,73.854 73.854,73.854c40.762,0 73.855,-33.093 73.855,-73.854c-0,-1.151 -0.933,-2.084 -2.084,-2.084l-69.687,0c-0,0 -0,-69.687 -0,-69.687c-0,-1.151 -0.933,-2.084 -2.084,-2.084c-12.987,0 -25.196,3.36 -35.806,9.258Z" style="fill:#05a7eb;"/><path d="M55.323,150.626l8.349,-1.212c2.226,-0.323 4.44,-0.321 6.573,0.007c-0,-0 13.833,2.122 13.833,2.122c2.976,0.457 6.199,-0.852 8.361,-3.396c0.987,-1.16 1.677,-2.49 2.043,-3.859c-0.81,0.282 -1.702,0.311 -2.554,0.057l-13.833,-4.132c-2.52,-0.752 -5.136,-1.135 -7.766,-1.135c0,0 -11.559,0 -11.559,0c-0.984,0 -1.834,0.689 -2.038,1.651c-0.686,3.228 -1.16,6.532 -1.409,9.897Z" style="fill:#0c90c8;"/><path d="M126.892,82.303l-0,73.825c-0,1.15 0.933,2.269 2.083,2.498c0,-0 47.267,9.412 71.936,14.285c1.255,-5.393 1.919,-11.011 1.919,-16.783c-0,-1.151 -0.933,-2.084 -2.084,-2.084l-69.687,0c-0,0 -0,-69.687 -0,-69.687c-0,-1.151 -0.933,-2.084 -2.084,-2.084c-0.696,0 -1.39,0.01 -2.083,0.03Z" style="fill:#0c90c8;"/><path d="M206.986,114.097c-0.363,-0.673 -1.067,-1.093 -1.833,-1.093l-19.368,-0c-3.107,-0 -6.198,0.452 -9.175,1.341l-16.554,4.943c-1.925,0.575 -4.011,0.031 -5.41,-1.412c-1.399,-1.443 -1.879,-3.544 -1.245,-5.451l4.243,-12.755c1.085,-3.263 1.638,-6.68 1.638,-10.119c0,-0 0,-15.264 0,-15.264c0,-0.888 -0.562,-1.678 -1.401,-1.969c-6.549,-2.268 -13.444,-3.79 -20.584,-4.465c-0.008,-0.001 -0.017,-0.002 -0.025,-0.003c-2.673,-0.219 -5.315,0.69 -7.287,2.508c-1.972,1.817 -3.094,4.376 -3.093,7.058c-0,21.284 -0,78.712 -0,78.712c-0,1.15 0.933,2.083 2.083,2.083c0,0 57.432,0 78.718,-0.051c2.661,-0 5.207,-1.116 7.014,-3.077c1.807,-1.961 2.711,-4.589 2.493,-7.247c-0.001,-0.008 -0.001,-0.016 -0.002,-0.023c-1.129,-12.109 -4.699,-23.513 -10.212,-33.716Z" style="fill:#ffb43f;"/><path d="M153.129,113.946l-0.12,0.345c-1.172,3.371 -0.286,7.369 2.299,10.372c2.585,3.003 6.438,4.511 9.996,3.913c-0,-0 17.246,-2.901 17.246,-2.901c2.699,-0.454 5.501,-0.497 8.317,-0.13l22.302,2.91c-1.643,-4.997 -3.719,-9.797 -6.183,-14.358c-0.363,-0.673 -1.067,-1.093 -1.833,-1.093l-19.368,-0c-3.107,-0 -6.198,0.452 -9.175,1.341l-16.554,4.943c-1.925,0.575 -4.011,0.031 -5.41,-1.412c-1.033,-1.065 -1.565,-2.49 -1.517,-3.93Z" style="fill:#f19b43;"/><path d="M70.329,143.245c2.226,0 4.44,0.324 6.573,0.961c0,-0 13.833,4.131 13.833,4.131c2.976,0.889 6.2,0.047 8.362,-2.182c2.162,-2.23 2.903,-5.478 1.923,-8.425c-0,-0 -2.115,-6.36 -3.545,-10.659c-0.778,-2.337 -1.174,-4.785 -1.174,-7.249c-0,-8.066 -0,-25.344 -0,-25.344c-0,-10.591 -8.586,-19.177 -19.178,-19.177c-12.885,-0 -30.477,-0 -43.362,-0c-10.592,-0 -19.178,8.586 -19.178,19.177c0,9.165 0,20.425 0,29.59c0,10.591 8.586,19.177 19.178,19.177c-0,0 26.649,0 36.568,0Z" style="fill:#ef5451;"/><circle cx="34.913" cy="109.273" r="7.336" style="fill:#fef1f0;"/><circle cx="75.971" cy="109.273" r="7.336" style="fill:#fef1f0;"/><circle cx="55.442" cy="109.273" r="7.336" style="fill:#fef1f0;"/><path d="M185.785,117.171c11.87,-0 43.759,-0 43.759,-0c12.448,-0 22.539,-10.092 22.539,-22.539c0,-10.968 0,-24.441 0,-35.409c0,-12.448 -10.091,-22.539 -22.539,-22.539c-15.419,0 -36.47,0 -51.889,0c-12.448,0 -22.539,10.091 -22.539,22.539c-0,0 -0,20.676 -0,30.328c-0,2.992 -0.482,5.965 -1.426,8.804c-1.711,5.144 -4.242,12.755 -4.242,12.755c-1.125,3.381 -0.274,7.108 2.206,9.667c2.481,2.558 6.18,3.524 9.595,2.504c-0,-0 16.553,-4.944 16.553,-4.944c2.591,-0.774 5.28,-1.166 7.983,-1.166Z" style="fill:#66bc6a;"/><path d="M70.329,143.245c2.226,0 4.44,0.324 6.573,0.961c0,-0 13.833,4.131 13.833,4.131c2.976,0.889 6.2,0.047 8.362,-2.182c2.162,-2.23 2.903,-5.478 1.923,-8.425c-0,-0 -2.115,-6.36 -3.545,-10.659c-0.778,-2.337 -1.174,-4.785 -1.174,-7.249c-0,-8.066 -0,-25.344 -0,-25.344c-0,-10.591 -8.586,-19.177 -19.178,-19.177c-12.885,-0 -30.477,-0 -43.362,-0c-10.592,-0 -19.178,8.586 -19.178,19.177c0,9.165 0,20.425 0,29.59c0,10.591 8.586,19.177 19.178,19.177c-0,0 26.649,0 36.568,0Zm0,-4.167c-9.919,0 -36.568,0 -36.568,0c-8.29,0 -15.011,-6.72 -15.011,-15.01c0,-9.165 0,-20.425 0,-29.59c0,-8.29 6.721,-15.011 15.011,-15.011c12.885,0 30.477,0 43.362,0c8.291,0 15.011,6.721 15.011,15.011c0,0 0,17.278 0,25.344c0,2.911 0.469,5.802 1.387,8.565l3.545,10.658c0.49,1.472 0.12,3.095 -0.961,4.209c-1.08,1.114 -2.69,1.535 -4.177,1.091l-13.833,-4.132c-2.52,-0.752 -5.136,-1.135 -7.766,-1.135Z" style="fill:#202333;"/><path d="M185.785,117.171c11.87,-0 43.759,-0 43.759,-0c12.448,-0 22.539,-10.092 22.539,-22.539c0,-10.968 0,-24.441 0,-35.409c0,-12.448 -10.091,-22.539 -22.539,-22.539c-15.419,0 -36.47,0 -51.889,0c-12.448,0 -22.539,10.091 -22.539,22.539c-0,0 -0,20.676 -0,30.328c-0,2.992 -0.482,5.965 -1.426,8.804c-1.711,5.144 -4.242,12.755 -4.242,12.755c-1.125,3.381 -0.274,7.108 2.206,9.667c2.481,2.558 6.18,3.524 9.595,2.504c-0,-0 16.553,-4.944 16.553,-4.944c2.591,-0.774 5.28,-1.166 7.983,-1.166Zm0,-4.167c-3.107,-0 -6.198,0.452 -9.175,1.341l-16.554,4.943c-1.925,0.575 -4.011,0.031 -5.41,-1.412c-1.399,-1.443 -1.879,-3.544 -1.245,-5.451l4.243,-12.755c1.085,-3.263 1.638,-6.68 1.638,-10.119c0,-9.652 0,-30.328 0,-30.328c0,-10.146 8.226,-18.372 18.373,-18.372c15.419,0 36.47,0 51.889,0c10.147,0 18.373,8.226 18.373,18.372c-0,10.968 -0,24.441 -0,35.409c-0,10.146 -8.226,18.372 -18.373,18.372c0,-0 -31.889,-0 -43.759,-0Z" style="fill:#202333;"/><path d="M34.913,101.936c-4.049,0 -7.337,3.288 -7.337,7.337c0,4.049 3.288,7.336 7.337,7.336c4.049,0 7.336,-3.287 7.336,-7.336c0,-4.049 -3.287,-7.337 -7.336,-7.337Zm-0,4.167c1.749,0 3.17,1.42 3.17,3.17c-0,1.749 -1.421,3.17 -3.17,3.17c-1.75,-0 -3.17,-1.421 -3.17,-3.17c-0,-1.75 1.42,-3.17 3.17,-3.17Z" style="fill:#202333;"/><path d="M55.442,101.936c-4.049,0 -7.336,3.288 -7.336,7.337c-0,4.049 3.287,7.336 7.336,7.336c4.049,0 7.337,-3.287 7.337,-7.336c-0,-4.049 -3.288,-7.337 -7.337,-7.337Zm0,4.167c1.75,0 3.17,1.42 3.17,3.17c-0,1.749 -1.42,3.17 -3.17,3.17c-1.749,-0 -3.17,-1.421 -3.17,-3.17c0,-1.75 1.421,-3.17 3.17,-3.17Z" style="fill:#202333;"/><path d="M75.971,101.936c-4.049,0 -7.336,3.288 -7.336,7.337c-0,4.049 3.287,7.336 7.336,7.336c4.05,0 7.337,-3.287 7.337,-7.336c-0,-4.049 -3.287,-7.337 -7.337,-7.337Zm0,4.167c1.75,0 3.17,1.42 3.17,3.17c0,1.749 -1.42,3.17 -3.17,3.17c-1.749,-0 -3.169,-1.421 -3.169,-3.17c-0,-1.75 1.42,-3.17 3.169,-3.17Z" style="fill:#202333;"/><path d="M93.169,91.531c-0.704,0.392 -1.12,1.154 -1.067,1.957c0.021,0.327 0.032,0.657 0.032,0.99c0,0 0,17.278 0,25.344c0,2.911 0.469,5.802 1.387,8.565l3.545,10.658c0.49,1.472 0.12,3.095 -0.961,4.209c-1.08,1.114 -2.69,1.535 -4.177,1.091l-13.833,-4.132c-2.52,-0.752 -5.136,-1.135 -7.766,-1.135c0,0 -11.559,0 -11.559,0c-0.984,0 -1.834,0.689 -2.038,1.651c-1.056,4.971 -1.611,10.121 -1.611,15.399c-0,40.761 33.093,73.854 73.854,73.854c40.762,0 73.855,-33.093 73.855,-73.854c-0,-1.151 -0.933,-2.084 -2.084,-2.084l-69.687,0c-0,0 -0,-69.687 -0,-69.687c-0,-1.151 -0.933,-2.084 -2.084,-2.084c-12.987,0 -25.196,3.36 -35.806,9.258Zm3.132,3.04c9.173,-4.884 19.562,-7.776 30.591,-8.1c-0,-0 -0,69.657 -0,69.657c-0,1.15 0.933,2.083 2.083,2.083l69.657,0c-1.103,37.5 -31.892,67.605 -69.657,67.605c-38.462,-0 -69.688,-31.226 -69.688,-69.688c0,-4.4 0.409,-8.704 1.191,-12.882c-0,-0.001 9.851,-0.001 9.851,-0.001c2.226,0 4.44,0.324 6.573,0.961c0,-0 13.833,4.131 13.833,4.131c2.976,0.889 6.2,0.047 8.362,-2.182c2.162,-2.23 2.903,-5.478 1.923,-8.425c-0,-0 -2.115,-6.36 -3.545,-10.659c-0.778,-2.337 -1.174,-4.785 -1.174,-7.249l-0,-25.251Z" style="fill:#202333;"/><path d="M179.919,62.118l47.361,-0c1.15,-0 2.084,-0.934 2.084,-2.084c-0,-1.149 -0.934,-2.083 -2.084,-2.083l-47.361,-0c-1.15,-0 -2.084,0.934 -2.084,2.083c0,1.15 0.934,2.084 2.084,2.084Z" style="fill:#202333;"/><path d="M179.919,79.011l47.361,-0c1.15,-0 2.084,-0.934 2.084,-2.084c-0,-1.149 -0.934,-2.083 -2.084,-2.083l-47.361,0c-1.15,0 -2.084,0.934 -2.084,2.083c0,1.15 0.934,2.084 2.084,2.084Z" style="fill:#202333;"/><path d="M179.919,95.904l47.361,-0c1.15,-0 2.084,-0.934 2.084,-2.083c-0,-1.15 -0.934,-2.084 -2.084,-2.084l-47.361,0c-1.15,0 -2.084,0.934 -2.084,2.084c0,1.149 0.934,2.083 2.084,2.083Z" style="fill:#202333;"/><path d="M206.986,114.097c-0.363,-0.673 -1.067,-1.093 -1.833,-1.093l-19.368,-0c-3.107,-0 -6.198,0.452 -9.175,1.341l-16.554,4.943c-1.925,0.575 -4.011,0.031 -5.41,-1.412c-1.399,-1.443 -1.879,-3.544 -1.245,-5.451l4.243,-12.755c1.085,-3.263 1.638,-6.68 1.638,-10.119c0,-0 0,-15.264 0,-15.264c0,-0.888 -0.562,-1.678 -1.401,-1.969c-6.549,-2.268 -13.444,-3.79 -20.584,-4.465c-0.008,-0.001 -0.017,-0.002 -0.025,-0.003c-2.673,-0.219 -5.315,0.69 -7.287,2.508c-1.972,1.817 -3.094,4.376 -3.093,7.058c-0,21.284 -0,78.712 -0,78.712c-0,1.15 0.933,2.083 2.083,2.083c0,0 57.432,0 78.718,-0.051c2.661,-0 5.207,-1.116 7.014,-3.077c1.807,-1.961 2.711,-4.589 2.493,-7.247c-0.001,-0.008 -0.001,-0.016 -0.002,-0.023c-1.129,-12.109 -4.699,-23.513 -10.212,-33.716Zm-3.085,3.074c4.92,9.436 8.11,19.914 9.147,31.014c0.12,1.494 -0.389,2.972 -1.406,4.074c-1.018,1.105 -2.452,1.734 -3.954,1.734c-0.002,0 -0.004,0 -0.005,0c-18.867,0.046 -66.135,0.051 -76.624,0.051l-0,-76.629c-0.001,-1.517 0.634,-2.965 1.749,-3.993c1.114,-1.026 2.604,-1.541 4.113,-1.42c6.289,0.596 12.379,1.882 18.193,3.781c0.002,0.001 0.002,13.768 0.002,13.768c-0,2.992 -0.482,5.965 -1.426,8.804c-1.711,5.144 -4.242,12.755 -4.242,12.755c-1.125,3.381 -0.274,7.108 2.206,9.667c2.481,2.558 6.18,3.524 9.595,2.504c-0,-0 16.553,-4.944 16.553,-4.944c2.591,-0.774 5.28,-1.166 7.983,-1.166l18.116,0Z" style="fill:#202333;"/></svg>