<svg xmlns="http://www.w3.org/2000/svg" xmlns:xlink="http://www.w3.org/1999/xlink" viewBox="0 0 64 64"><defs><style>.cls-1{fill:#ccd3eb;}.cls-2{fill:#f5f7ff;}.cls-3{fill:url(#linear-gradient);}.cls-4{fill:url(#linear-gradient-2);}.cls-5{fill:url(#linear-gradient-3);}.cls-6{fill:url(#linear-gradient-4);}.cls-7{fill:url(#linear-gradient-5);}.cls-8{fill:url(#linear-gradient-6);}.cls-9{fill:url(#linear-gradient-7);}.cls-10{fill:url(#linear-gradient-8);}.cls-11{fill:url(#linear-gradient-9);}.cls-12{fill:url(#linear-gradient-10);}.cls-13{fill:url(#linear-gradient-11);}.cls-14{fill:url(#linear-gradient-12);}.cls-15{fill:#0074ff;}.cls-16{fill:#96a1c3;}.cls-17{fill:#033c59;}.cls-18{fill:#647499;}</style><linearGradient id="linear-gradient" x1="19" y1="6.5" x2="21" y2="6.5" gradientUnits="userSpaceOnUse"><stop offset="0" stop-color="#54a5ff"/><stop offset="1" stop-color="#8ad3fe"/></linearGradient><linearGradient id="linear-gradient-2" x1="31" x2="33" xlink:href="#linear-gradient"/><linearGradient id="linear-gradient-3" x1="43" x2="45" xlink:href="#linear-gradient"/><linearGradient id="linear-gradient-4" y1="57.5" y2="57.5" xlink:href="#linear-gradient"/><linearGradient id="linear-gradient-5" x1="31" y1="57.5" x2="33" y2="57.5" xlink:href="#linear-gradient"/><linearGradient id="linear-gradient-6" x1="43" y1="57.5" x2="45" y2="57.5" xlink:href="#linear-gradient"/><linearGradient id="linear-gradient-7" x1="3" y1="20" x2="10" y2="20" xlink:href="#linear-gradient"/><linearGradient id="linear-gradient-8" x1="3" y1="32" x2="10" y2="32" xlink:href="#linear-gradient"/><linearGradient id="linear-gradient-9" x1="3" y1="44" x2="10" y2="44" xlink:href="#linear-gradient"/><linearGradient id="linear-gradient-10" x1="54" y1="20" x2="61" y2="20" xlink:href="#linear-gradient"/><linearGradient id="linear-gradient-11" x1="54" y1="32" x2="61" y2="32" xlink:href="#linear-gradient"/><linearGradient id="linear-gradient-12" x1="54" y1="44" x2="61" y2="44" xlink:href="#linear-gradient"/></defs><title>Chip</title><g id="Chip"><path class="cls-1" d="M55,13V51a4,4,0,0,1-4,4H13a4,4,0,0,1-3.9-3.1A4.43,4.43,0,0,1,9,51V13a4,4,0,0,1,4-4H51a4.43,4.43,0,0,1,.9.1A4,4,0,0,1,55,13Z"/><path class="cls-2" d="M52,10V35.08A16.91,16.91,0,0,1,35.08,52H10a4.43,4.43,0,0,1-.9-.1A4.43,4.43,0,0,1,9,51V13a4,4,0,0,1,4-4H51a4.43,4.43,0,0,1,.9.1A4.43,4.43,0,0,1,52,10Z"/><path class="cls-3" d="M20,10a1,1,0,0,1-1-1V4a1,1,0,0,1,2,0V9A1,1,0,0,1,20,10Z"/><path class="cls-4" d="M32,10a1,1,0,0,1-1-1V4a1,1,0,0,1,2,0V9A1,1,0,0,1,32,10Z"/><path class="cls-5" d="M44,10a1,1,0,0,1-1-1V4a1,1,0,0,1,2,0V9A1,1,0,0,1,44,10Z"/><path class="cls-6" d="M20,61a1,1,0,0,1-1-1V55a1,1,0,0,1,2,0v5A1,1,0,0,1,20,61Z"/><path class="cls-7" d="M32,61a1,1,0,0,1-1-1V55a1,1,0,0,1,2,0v5A1,1,0,0,1,32,61Z"/><path class="cls-8" d="M44,61a1,1,0,0,1-1-1V55a1,1,0,0,1,2,0v5A1,1,0,0,1,44,61Z"/><path class="cls-9" d="M9,21H4a1,1,0,0,1,0-2H9a1,1,0,0,1,0,2Z"/><path class="cls-10" d="M9,33H4a1,1,0,0,1,0-2H9a1,1,0,0,1,0,2Z"/><path class="cls-11" d="M9,45H4a1,1,0,0,1,0-2H9a1,1,0,0,1,0,2Z"/><path class="cls-12" d="M60,21H55a1,1,0,0,1,0-2h5a1,1,0,0,1,0,2Z"/><path class="cls-13" d="M60,33H55a1,1,0,0,1,0-2h5a1,1,0,0,1,0,2Z"/><path class="cls-14" d="M60,45H55a1,1,0,0,1,0-2h5a1,1,0,0,1,0,2Z"/><rect class="cls-15" x="22" y="22" width="20" height="20" rx="2"/><circle class="cls-16" cx="18" cy="17" r="2"/><circle class="cls-16" cx="46" cy="17" r="2"/><circle class="cls-16" cx="18" cy="47" r="2"/><circle class="cls-16" cx="46" cy="47" r="2"/><path class="cls-17" d="M35,23h1a1,1,0,0,0,0-2H35a1,1,0,0,0,0,2Z"/><path class="cls-17" d="M43,24a3,3,0,0,0-3-3,1,1,0,0,0,0,2,1,1,0,0,1,1,1V40a1,1,0,0,1-1,1H24a1,1,0,0,1-1-1V24a1,1,0,0,1,1-1h7a1,1,0,0,0,0-2H24a3,3,0,0,0-3,3V40a3,3,0,0,0,3,3H40a3,3,0,0,0,3-3Z"/><path class="cls-18" d="M18,20a3,3,0,1,0-3-3A3,3,0,0,0,18,20Zm0-4a1,1,0,1,1-1,1A1,1,0,0,1,18,16Z"/><path class="cls-18" d="M46,14a3,3,0,1,0,3,3A3,3,0,0,0,46,14Zm0,4a1,1,0,1,1,1-1A1,1,0,0,1,46,18Z"/><path class="cls-18" d="M18,44a3,3,0,1,0,3,3A3,3,0,0,0,18,44Zm0,4a1,1,0,1,1,1-1A1,1,0,0,1,18,48Z"/><path class="cls-18" d="M46,44a3,3,0,1,0,3,3A3,3,0,0,0,46,44Zm0,4a1,1,0,1,1,1-1A1,1,0,0,1,46,48Z"/><path class="cls-17" d="M60,33a1,1,0,0,0,0-2H56V21h4a1,1,0,0,0,0-2H56V13a5,5,0,0,0-5-5H45V4a1,1,0,0,0-2,0V8H33V4a1,1,0,0,0-2,0V8H21V4a1,1,0,0,0-2,0V8H13a5,5,0,0,0-5,5v6H4a1,1,0,0,0,0,2H8V31H4a1,1,0,0,0,0,2H8V43H4a1,1,0,0,0,0,2H8v6a5,5,0,0,0,5,5h6v4a1,1,0,0,0,2,0V56H31v4a1,1,0,0,0,2,0V56H43v4a1,1,0,0,0,2,0V56h6a5,5,0,0,0,5-5V45h4a1,1,0,0,0,0-2H56V33ZM54,51a3,3,0,0,1-3,3H13a3,3,0,0,1-3-3V13a3,3,0,0,1,3-3H51a3,3,0,0,1,3,3Z"/></g></svg>