<svg xmlns="http://www.w3.org/2000/svg" viewBox="0 0 64 64"><defs><style>.cls-1{fill:#f5f7ff;}.cls-2{fill:#0074ff;}.cls-3{fill:#033c59;}</style></defs><title>Earth</title><g id="Earth"><path class="cls-1" d="M8.06,43a2.49,2.49,0,0,0,2.44,3H18a2,2,0,0,1,2,2,2,2,0,0,1-2,2H15v2a2,2,0,0,1-2,2H10.16A30.9,30.9,0,0,1,1,32a30.58,30.58,0,0,1,1-8H14a2,2,0,0,1,2,2v2h2.5a6.5,6.5,0,0,1,0,13H10.62A2.73,2.73,0,0,0,8.06,43Z"/><path class="cls-2" d="M35.48,42.5A2.49,2.49,0,0,0,38,45h1.5v2a2,2,0,0,0,2,2h4v2a2,2,0,0,0,2,2h6.79c-.64.7-1.31,1.36-2,2A31,31,0,0,1,9.64,54h2.84a2,2,0,0,0,2-2V50h3a2,2,0,0,0,2-2,2,2,0,0,0-.59-1.41A2,2,0,0,0,17.48,46H10a2.49,2.49,0,0,1-2.44-3,2.73,2.73,0,0,1,2.56-2H18a6.5,6.5,0,1,0,0-13h-2.5V26a2,2,0,0,0-2-2h-12A31,31,0,0,1,51.08,8H39.13a3.77,3.77,0,0,0-3.58,2.81A3.51,3.51,0,0,0,39,15h4.5v1a4,4,0,0,0,4,4H60.07a30.94,30.94,0,0,1,2.41,12,29.42,29.42,0,0,1-.27,4H43.48a2,2,0,0,0-2,2v2H38A2.5,2.5,0,0,0,35.48,42.5Z"/><path class="cls-1" d="M60.59,20H48a4,4,0,0,1-4-4V15H39.5a3.51,3.51,0,0,1-3.43-4.19A3.78,3.78,0,0,1,39.65,8h12a31.13,31.13,0,0,1,9,12Z"/><path class="cls-1" d="M62.74,36a30,30,0,0,1-.83,4.16c-.26,1-.57,1.91-.92,2.84a30.73,30.73,0,0,1-6.2,10H48a2,2,0,0,1-2-2V49H42a2,2,0,0,1-2-2V45H38.5a2.5,2.5,0,0,1,0-5H42V38a2,2,0,0,1,2-2Z"/><path class="cls-3" d="M61.51,19.61h0A31.9,31.9,0,0,0,52.24,7.23,32,32,0,0,0,9.41,54.64a.49.49,0,0,0,.13.12,31.94,31.94,0,0,0,43.9,1c.71-.63,1.37-1.31,2-2a.27.27,0,0,0,.07-.08,31.94,31.94,0,0,0,6.4-10.3c.38-1,.69-2,1-2.93A32.23,32.23,0,0,0,64,32,31.84,31.84,0,0,0,61.51,19.61Zm-4.42-4.06A29.78,29.78,0,0,1,59,19H48a3,3,0,0,1-3-3V15a1,1,0,0,0-1-1H39.5a2.44,2.44,0,0,1-1.77-.75A2.47,2.47,0,0,1,37.05,11a2.79,2.79,0,0,1,2.6-2H51.23A29.5,29.5,0,0,1,57.09,15.55ZM2.83,25H14a1,1,0,0,1,1,1v2a1,1,0,0,0,1,1h2.5a5.5,5.5,0,0,1,0,11H10.62a3.73,3.73,0,0,0-3.54,2.75A3.52,3.52,0,0,0,8,46a3.48,3.48,0,0,0,2.48,1H18a1,1,0,0,1,.71.31A.93.93,0,0,1,19,48a1,1,0,0,1-1,1H15a1,1,0,0,0-1,1v2a1,1,0,0,1-1,1H10.6A29.94,29.94,0,0,1,2.83,25ZM60.06,42.65A30.11,30.11,0,0,1,54.34,52H48a1,1,0,0,1-1-1V49a1,1,0,0,0-1-1H42a1,1,0,0,1-1-1V45a1,1,0,0,0-1-1H38.5a1.5,1.5,0,0,1,0-3H42a1,1,0,0,0,1-1V38a1,1,0,0,1,1-1h2a1,1,0,0,0,0-2H44a3,3,0,0,0-3,3v1H38.5a3.5,3.5,0,1,0,0,7H39v1a3,3,0,0,0,3,3h3v1a3,3,0,0,0,3,3h4.37l-.27.26A29.94,29.94,0,0,1,12.77,55H13a3,3,0,0,0,3-3V51h2a3,3,0,0,0,3-3,3,3,0,0,0-3-3H10.5A1.5,1.5,0,0,1,9,43.17,1.75,1.75,0,0,1,10.62,42H19a1,1,0,0,0,.17,0,7.5,7.5,0,0,0-.67-15H17V26a3,3,0,0,0-3-3H3.38A30,30,0,0,1,48.55,7h-8.9a4.75,4.75,0,0,0-4.56,3.62A4.51,4.51,0,0,0,39.5,16H43a5,5,0,0,0,5,5H59.91A29.87,29.87,0,0,1,62,32c0,1-.07,2-.17,3H55a1,1,0,0,0,0,2h6.57c-.17,1-.37,2-.63,2.9S60.41,41.69,60.06,42.65Z"/><path class="cls-3" d="M51,35H50a1,1,0,0,0,0,2h1a1,1,0,0,0,0-2Z"/></g></svg>